<?xml version="1.0" encoding="UTF-8"?>
<svg xmlns="http://www.w3.org/2000/svg" xmlns:xlink="http://www.w3.org/1999/xlink" width="40px" height="40px" viewBox="0 0 40 40" version="1.1">
<g id="surface1">
<path style=" stroke:none;fill-rule:nonzero;fill:rgb(98.823529%,40.392157%,35.686275%);fill-opacity:1;" d="M 36.328125 28.800781 L 36.328125 0.730469 L 8.890625 0.730469 C 6 0.730469 3.65625 3.074219 3.65625 5.964844 L 3.65625 34.035156 "/>
<path style=" stroke:none;fill-rule:nonzero;fill:rgb(90.980393%,68.627453%,23.921569%);fill-opacity:1;" d="M 36.328125 28.800781 L 8.472656 28.800781 C 5.8125 28.800781 3.65625 30.960938 3.65625 33.621094 L 3.65625 34.453125 C 3.65625 37.113281 5.8125 39.269531 8.472656 39.269531 L 36.328125 39.269531 Z M 36.328125 28.800781 "/>
<path style=" stroke:none;fill-rule:nonzero;fill:rgb(94.901961%,94.901961%,94.901961%);fill-opacity:1;" d="M 33.023438 28.804688 L 33.023438 35.464844 L 5.585938 35.464844 C 4.949219 35.464844 4.339844 35.351562 3.773438 35.144531 L 3.707031 35.152344 C 3.671875 34.925781 3.65625 34.691406 3.65625 34.453125 L 3.65625 33.621094 C 3.65625 30.960938 5.8125 28.800781 8.472656 28.800781 L 33.023438 28.800781 Z M 33.023438 28.804688 "/>
<path style=" stroke:none;fill-rule:nonzero;fill:rgb(80.000001%,80.000001%,80.000001%);fill-opacity:1;" d="M 33.023438 28.800781 L 33.023438 31.203125 L 8.472656 31.203125 C 6.109375 31.203125 4.144531 32.90625 3.734375 35.148438 L 3.707031 35.152344 C 3.671875 34.925781 3.65625 34.691406 3.65625 34.453125 L 3.65625 33.621094 C 3.65625 30.960938 5.8125 28.800781 8.472656 28.800781 Z M 33.023438 28.800781 "/>
<path style=" stroke:none;fill-rule:nonzero;fill:rgb(98.823529%,76.862746%,27.843139%);fill-opacity:1;" d="M 30.246094 9.480469 L 25.746094 9.480469 L 25.746094 4.855469 L 19.71875 4.855469 L 19.71875 9.480469 L 15.21875 9.480469 L 15.21875 15.507812 L 19.71875 15.507812 L 19.71875 24.363281 L 25.746094 24.363281 L 25.746094 15.507812 L 30.246094 15.507812 Z M 30.246094 9.480469 "/>
<path style=" stroke:none;fill-rule:nonzero;fill:rgb(0%,0%,0%);fill-opacity:1;" d="M 36.335938 0 L 32.382812 0 C 31.980469 0 31.652344 0.328125 31.652344 0.730469 C 31.652344 1.132812 31.980469 1.460938 32.382812 1.460938 L 35.605469 1.460938 L 35.605469 28.074219 L 9.628906 28.074219 L 9.628906 22.300781 C 9.628906 21.898438 9.300781 21.570312 8.898438 21.570312 C 8.496094 21.570312 8.167969 21.898438 8.167969 22.300781 L 8.167969 28.082031 C 6.675781 28.164062 5.34375 28.839844 4.394531 29.875 L 4.394531 5.964844 C 4.394531 3.730469 6.03125 1.871094 8.167969 1.519531 L 8.167969 19.285156 C 8.167969 19.691406 8.496094 20.015625 8.898438 20.015625 C 9.300781 20.015625 9.628906 19.691406 9.628906 19.285156 L 9.628906 1.460938 L 29.527344 1.460938 C 29.929688 1.460938 30.257812 1.132812 30.257812 0.730469 C 30.257812 0.328125 29.929688 0 29.527344 0 L 8.898438 0 C 5.609375 0 2.933594 2.675781 2.933594 5.964844 L 2.933594 34.453125 C 2.933594 37.511719 5.421875 40 8.480469 40 L 36.335938 40 C 36.738281 40 37.066406 39.671875 37.066406 39.269531 L 37.066406 0.730469 C 37.066406 0.328125 36.738281 0 36.335938 0 Z M 8.480469 29.53125 L 32.300781 29.53125 L 32.300781 34.734375 L 5.59375 34.734375 C 5.183594 34.734375 4.785156 34.679688 4.398438 34.574219 C 4.394531 34.53125 4.394531 34.492188 4.394531 34.453125 L 4.394531 33.621094 C 4.394531 31.367188 6.226562 29.53125 8.480469 29.53125 Z M 35.605469 38.539062 L 8.480469 38.539062 C 6.828125 38.539062 5.402344 37.550781 4.757812 36.136719 C 5.03125 36.171875 5.3125 36.195312 5.59375 36.195312 L 33.03125 36.195312 C 33.433594 36.195312 33.761719 35.867188 33.761719 35.464844 L 33.761719 29.53125 L 35.605469 29.53125 Z M 35.605469 38.539062 "/>
<path style=" stroke:none;fill-rule:nonzero;fill:rgb(0%,0%,0%);fill-opacity:1;" d="M 26.484375 8.75 L 26.484375 4.855469 C 26.484375 4.449219 26.15625 4.125 25.753906 4.125 L 19.726562 4.125 C 19.324219 4.125 18.996094 4.449219 18.996094 4.855469 L 18.996094 8.75 L 15.226562 8.75 C 14.824219 8.75 14.496094 9.074219 14.496094 9.480469 L 14.496094 15.507812 C 14.496094 15.910156 14.824219 16.234375 15.226562 16.234375 L 18.996094 16.234375 L 18.996094 24.363281 C 18.996094 24.765625 19.324219 25.089844 19.726562 25.089844 L 25.753906 25.089844 C 26.15625 25.089844 26.484375 24.765625 26.484375 24.363281 L 26.484375 20.550781 C 26.484375 20.148438 26.15625 19.820312 25.753906 19.820312 C 25.351562 19.820312 25.023438 20.148438 25.023438 20.550781 L 25.023438 23.632812 L 20.457031 23.632812 L 20.457031 15.507812 C 20.457031 15.101562 20.128906 14.777344 19.726562 14.777344 L 15.957031 14.777344 L 15.957031 10.210938 L 19.726562 10.210938 C 20.128906 10.210938 20.457031 9.882812 20.457031 9.480469 L 20.457031 5.582031 L 25.023438 5.582031 L 25.023438 9.480469 C 25.023438 9.882812 25.351562 10.210938 25.753906 10.210938 L 29.523438 10.210938 L 29.523438 14.777344 L 25.753906 14.777344 C 25.351562 14.777344 25.023438 15.101562 25.023438 15.507812 L 25.023438 18.117188 C 25.023438 18.519531 25.351562 18.847656 25.753906 18.847656 C 26.15625 18.847656 26.484375 18.519531 26.484375 18.117188 L 26.484375 16.234375 L 30.253906 16.234375 C 30.65625 16.234375 30.984375 15.910156 30.984375 15.507812 L 30.984375 9.480469 C 30.984375 9.078125 30.65625 8.75 30.253906 8.75 Z M 26.484375 8.75 "/>
</g>
</svg>
